# xmcd
#
# Track frame offsets: 
#        150
#        21179
#        43448
#        55210
#        70004
#        90178
#        111426
#        128398
#        143157
#        159456
#        179137
#        193395
#        211141
#        226303
#        239833
#        250230
#
# Disc length: 3615 seconds
#
# Revision: 2
# Processed by: cddbd v1.5.2PL0 Copyright (c) Steve Scherf et al.
# Submitted via: ExactAudioCopyFreeDBPlugin 1.0
#
DISCID=e90e1d10
DTITLE=Various Artist - Soulshaker Vol.3
DYEAR=2006
DGENRE=Funk
TTITLE0=The Bamboos Feat. Alice Russell - Trascend Me
TTITLE1=Breakestra Feat. Choklate - Take My Time
TTITLE2=Big Dady Moochin - Ratpack
TTITLE3=Quantic Soul Orchestra Feat. Alice Russell - Pushin' On
TTITLE4=Phat Fred - Stay On The Groove
TTITLE5=The Hi-Fly Orchestra - Hi-Fidelity
TTITLE6=Bronx River Parkway - La Valla
TTITLE7=Smoove - Tired Feet
TTITLE8=Soldiers Of Twilight - Belive (The New Mastersounds Rmx)
TTITLE9=Gary Davis - Gotta Get Your Love (Kenny Dope Rmx)
TTITLE10=The Budos Band - Aynotchesh Yererfu
TTITLE11=The Sweet Vandals - Do It Right
TTITLE12=The Poets Of Rhythm - Practice What You Preach
TTITLE13=The Link Quartet - Move Move Move
TTITLE14=The Soul Snatchers - Who Told You
TTITLE15=Speaklow - Meters Bread
EXTD=
EXTT0=
EXTT1=
EXTT2=
EXTT3=
EXTT4=
EXTT5=
EXTT6=
EXTT7=
EXTT8=
EXTT9=
EXTT10=
EXTT11=
EXTT12=
EXTT13=
EXTT14=
EXTT15=
PLAYORDER=
